# xmcd
#
# Track frame offsets:
#	150
#	16022
#	28511
#	40661
#	63800
#	86970
#
# Disc length: 1342 seconds
#
# Revision: 1
# Processed by: cddbd v1.4PL0 Copyright (c) Steve Scherf et al.
# Submitted via: EasyCDDAExtractor 6.0.0.1
#
DISCID=3b053c06
DTITLE=Joe Mora - HDR
DYEAR=2000
DGENRE=Slow Rock
TTITLE0=327
TTITLE1=Travelin' On
TTITLE2=Go
TTITLE3=Lake Erie
TTITLE4=Lonely
TTITLE5=Tattooed Love Boys
EXTD=
EXTT0=
EXTT1=
EXTT2=
EXTT3=
EXTT4=
EXTT5=
PLAYORDER=
